<svg xmlns="http://www.w3.org/2000/svg" xmlns:xlink="http://www.w3.org/1999/xlink" version="1.1" x="0px" y="0px" viewBox="0 0 100 125" enable-background="new 0 0 100 100" xml:space="preserve"><g><g><path d="M69.408,77H49.34l28.486-28.961L49.312,20h20.095l0.146,0.145l28.354,28.119l-0.352,0.355L69.408,77z M51.727,76h17.266    l27.501-27.73L68.994,21H51.755L79.24,48.027L51.727,76z"/></g><g><path d="M45.142,77H25.073L53.56,48.039L25.045,20H45.14l0.146,0.145l28.354,28.119l-0.352,0.355L45.142,77z M27.46,76h17.266    l27.501-27.73L44.728,21H27.488l27.485,27.027L27.46,76z"/></g><g><path d="M20.875,77H0.807l28.486-28.961L0.778,20h20.095l0.146,0.145l28.354,28.119l-0.352,0.355L20.875,77z M3.193,76h17.266    L47.96,48.27L20.461,21H3.222l27.485,27.027L3.193,76z"/></g></g><text x="0" y="115" fill="#000000" font-size="5px" font-weight="bold" font-family="'Helvetica Neue', Helvetica, Arial-Unicode, Arial, Sans-serif">Created by Brian Oppenlander</text><text x="0" y="120" fill="#000000" font-size="5px" font-weight="bold" font-family="'Helvetica Neue', Helvetica, Arial-Unicode, Arial, Sans-serif">from the Noun Project</text></svg>