<svg xmlns="http://www.w3.org/2000/svg" xmlns:xlink="http://www.w3.org/1999/xlink" version="1.1" x="0px" y="0px" viewBox="0 0 100 125" enable-background="new 0 0 100 100" xml:space="preserve"><g><g><polygon points="53.75,10 93.375,50 53,90 53,70 73.75,50 53.875,30   "/><path d="M53,91.204V69.789l20.288-19.793L53.503,30.209L53.234,8.775l41.098,41.226L53,91.204z M54,70.211v18.585l38.918-38.797    L54.266,11.225l0.231,18.565l20.215,20.214L54,70.211z"/></g><g><polygon points="18.75,10 58.375,50 18,90 18,70 38.75,50 18.875,30   "/><path d="M18,91.204V69.789l0.151-0.146l20.138-19.647L18.502,30.209L18.235,8.775l41.097,41.226L18,91.204z M19,70.211v18.585    l38.918-38.797L19.265,11.225l0.232,18.565l20.214,20.214L19,70.211z"/></g></g><text x="0" y="115" fill="#000000" font-size="5px" font-weight="bold" font-family="'Helvetica Neue', Helvetica, Arial-Unicode, Arial, Sans-serif">Created by Brian Oppenlander</text><text x="0" y="120" fill="#000000" font-size="5px" font-weight="bold" font-family="'Helvetica Neue', Helvetica, Arial-Unicode, Arial, Sans-serif">from the Noun Project</text></svg>