<svg xmlns="http://www.w3.org/2000/svg" xmlns:xlink="http://www.w3.org/1999/xlink" version="1.1" x="0px" y="0px" viewBox="0 0 100 125" enable-background="new 0 0 100 100" xml:space="preserve"><g><g><polygon points="57,22 67,22 97,51.75 67,82 57,82 87,51.5   "/><path d="M67.208,82H55.807l30.486-30.994L55.778,21h11.428l0.146,0.145l30.354,30.103l-0.352,0.355L67.208,82z M58.193,81h8.599    l29.501-29.747L66.794,22h-8.572l29.485,28.994L58.193,81z"/></g><g><polygon points="32,22 42,22 72,51.75 42,82 32,82 62,51.5   "/><path d="M42.208,82H30.807l30.486-30.994L30.778,21h11.428l0.146,0.145l30.354,30.103l-0.352,0.355L42.208,82z M33.193,81h8.599    l29.501-29.747L41.794,22h-8.572l29.485,28.994L33.193,81z"/></g><g><polygon points="8,22 18,22 48,51.75 18,82 8,82 38,51.5   "/><path d="M18.208,82H6.807l30.486-30.994L6.778,21h11.428l0.146,0.145l30.354,30.103l-0.352,0.355L18.208,82z M9.193,81h8.599    l29.501-29.747L17.794,22H9.222l29.485,28.994L9.193,81z"/></g></g><text x="0" y="115" fill="#000000" font-size="5px" font-weight="bold" font-family="'Helvetica Neue', Helvetica, Arial-Unicode, Arial, Sans-serif">Created by Brian Oppenlander</text><text x="0" y="120" fill="#000000" font-size="5px" font-weight="bold" font-family="'Helvetica Neue', Helvetica, Arial-Unicode, Arial, Sans-serif">from the Noun Project</text></svg>