<svg xmlns="http://www.w3.org/2000/svg" xmlns:xlink="http://www.w3.org/1999/xlink" version="1.1" x="0px" y="0px" viewBox="0 0 100 125" enable-background="new 0 0 100 100" xml:space="preserve"><g><g><path d="M63.075,80.062c-5.678,2.256-12.287,3.778-18.876,3.14c-16.123-1.562-28.675-14.396-26.881-32.908    c1.915-19.76,17.64-35.567,39.469-33.452c17.105,1.657,27.466,14.57,25.913,30.589c-1.394,14.387-10.471,22.027-19.712,21.131    c-3.935-0.381-7.32-3.322-6.461-9.145l-0.388-0.038c-3.99,5.326-8.784,7.668-14.685,7.096c-5.703-0.553-10.182-5.536-9.448-13.116    c1.152-11.892,11.838-21.797,25.508-20.472c4.226,0.409,7.877,1.633,10.324,3.035L62.811,52.96    c-2.181,7.145-1.326,10.616,1.91,11.028c5.004,0.583,11.242-5.398,12.32-16.524c1.348-13.91-6.232-24.808-21.471-26.285    c-16.028-1.553-30.706,9.613-32.593,29.084c-1.552,16.015,8.2,27.032,22.749,28.441c5.606,0.543,11.929-1.104,16.174-2.92    L63.075,80.062z M60.69,39.005c-0.954-0.382-2.589-0.93-4.848-1.149c-8.655-0.839-16.41,6.447-17.311,15.749    c-0.409,4.224,1.462,7.5,5.784,7.919c5.705,0.553,11.602-6.04,13.26-11.878L60.69,39.005z"/></g></g><text x="0" y="115" fill="#000000" font-size="5px" font-weight="bold" font-family="'Helvetica Neue', Helvetica, Arial-Unicode, Arial, Sans-serif">Created by João Proença</text><text x="0" y="120" fill="#000000" font-size="5px" font-weight="bold" font-family="'Helvetica Neue', Helvetica, Arial-Unicode, Arial, Sans-serif">from the Noun Project</text></svg>