<svg xmlns="http://www.w3.org/2000/svg" xmlns:xlink="http://www.w3.org/1999/xlink" version="1.1" x="0px" y="0px" viewBox="0 0 100 125" enable-background="new 0 0 100 100" xml:space="preserve"><path d="M50,5C25.1,5,5,25.1,5,50c0,24.9,20.1,45,45,45s45-20.1,45-45C95,25.1,74.9,5,50,5z M70.1,56.6c-2.4,2.9-5.2,4.4-8.6,4.4  c-4.4,0-6.6-2.1-6.6-6.2h-0.1C53.3,59,50.6,61,46.6,61c-2.6,0-4.6-1-6.2-2.9c-1.6-1.9-2.4-4.5-2.4-7.8c0-4.3,1.1-7.9,3.2-10.7  c2.2-2.8,5-4.3,8.5-4.3c1.3,0,2.5,0.4,3.6,1.1c1.1,0.7,1.7,1.6,2,2.7h0.1c0.1-0.5,0.2-1.6,0.4-3.3h4.8c-0.9,10.1-1.3,15.2-1.3,15.4  c0,3.8,1,5.7,3,5.7c1.8,0,3.3-1.1,4.5-3.2s1.8-4.9,1.8-8.2c0-5-1.6-9-4.8-12.2c-3.2-3.1-7.6-4.7-13.3-4.7c-5.4,0-10,1.9-13.5,5.7  c-3.6,3.8-5.4,8.6-5.4,14.3c0,5.6,1.7,10.2,5.2,13.7s8.1,5.2,13.9,5.2c4.6,0,8.5-0.8,11.8-2.4v4.4c-3.3,1.4-7.5,2.1-12.5,2.1  c-7,0-12.7-2.1-17-6.3c-4.3-4.2-6.5-9.7-6.5-16.5c0-7,2.3-12.8,6.8-17.4c4.6-4.6,10.4-6.9,17.4-6.9c6.6,0,12.1,1.9,16.5,5.8  c4.4,3.9,6.5,8.9,6.5,15.1C73.6,50,72.4,53.7,70.1,56.6z"/><path d="M50.2,39.4c-2.1,0-3.8,1-5.1,3.1c-1.3,2.1-1.9,4.6-1.9,7.7c0,2.1,0.4,3.7,1.3,4.9c0.9,1.2,2,1.8,3.5,1.8  c2.1,0,3.8-1.1,5-3.3c1.2-2.2,1.8-5,1.8-8.6C54.8,41.3,53.3,39.4,50.2,39.4z"/><text x="0" y="115" fill="#000000" font-size="5px" font-weight="bold" font-family="'Helvetica Neue', Helvetica, Arial-Unicode, Arial, Sans-serif">Created by Nimal Raj</text><text x="0" y="120" fill="#000000" font-size="5px" font-weight="bold" font-family="'Helvetica Neue', Helvetica, Arial-Unicode, Arial, Sans-serif">from the Noun Project</text></svg>