<?xml version="1.0" encoding="utf-8"?>
<!-- Generator: Adobe Illustrator 16.0.4, SVG Export Plug-In . SVG Version: 6.00 Build 0)  -->
<!DOCTYPE svg PUBLIC "-//W3C//DTD SVG 1.1//EN" "http://www.w3.org/Graphics/SVG/1.1/DTD/svg11.dtd">
<svg version="1.1" id="Layer_1" xmlns="http://www.w3.org/2000/svg" xmlns:xlink="http://www.w3.org/1999/xlink" x="0px" y="0px"
	 width="500px" height="415px" viewBox="0 0 500 415" enable-background="new 0 0 500 415" xml:space="preserve">
<g id="a">
	<path fill="#87191C" d="M500,163.714c0-31.653-15.188-62.177-45.562-91.569c-30.178-29.598-79.387-52.721-147.634-69.37L268.64,0
		c-79.29,4.111-146.155,31.037-200.593,80.778C22.683,122.708,0,162.892,0,201.328c0,17.06,4.043,33.811,12.129,50.254
		c10.454,20.966,27.712,37.203,51.777,48.714l1.182,29.598c0,13.155-0.688,27.337-2.07,42.547
		c-1.379,15.209-2.17,23.637-2.366,25.281c-0.593,1.439-0.1,4.728,1.477,9.866c1.382,5.139,4.539,7.605,9.468,7.4
		c4.932-0.616,12.625-9.044,23.079-25.281c10.847-19.116,18.145-32.373,21.892-39.773c3.945-7.399,9.961-15.416,18.047-24.048
		c8.088-8.632,15.288-15.416,21.599-20.348c6.311,2.671,13.413,4.933,21.301,6.783c7.495,1.644,15.681,3.392,24.556,5.241
		c8.877,1.645,22.585,2.261,41.125,1.85c18.342-0.617,47.437-7.194,87.278-19.732c39.646-12.744,71.204-26.104,94.675-40.081
		c28.401-16.855,48.42-33.195,60.059-49.022C495.068,197.012,500,181.391,500,163.714 M238.462,58.888
		c1.379-12.333,5.127-17.163,11.243-14.491c6.113,2.878,8.381,9.558,6.804,20.041v24.048c0.789,11.716,2.07,30.317,3.848,55.805
		c1.379,23.021,2.07,42.033,2.07,57.038c0,8.016-3.157,12.024-9.468,12.024c-6.902,0-10.75-4.111-11.538-12.333
		c0.789-9.043,1.084-14.696,0.886-16.957c-1.184-13.977-1.873-23.946-2.07-29.906c-1.973-20.554-2.959-40.595-2.959-60.121
		C237.278,78.002,237.673,66.287,238.462,58.888 M200.889,69.062c0.591,16.649,1.775,31.037,3.55,43.164
		c0.986,7.194,3.154,21.376,6.509,42.547c2.959,19.731,4.438,34.633,4.438,44.705c0,1.028,0.493,2.98,1.477,5.858
		c-0.393,5.755-3.154,8.633-8.284,8.633c-6.509,0-10.947-9.25-13.313-27.748c-1.577-22.199-3.157-37.306-4.734-45.322
		c-0.986-4.316-2.466-15.416-4.438-33.298c-2.168-18.91-3.254-31.962-3.254-39.155c0-13.361,2.861-20.041,8.582-20.041
		c5.522,0,8.579,2.364,9.17,7.091C200.986,58.374,201.084,62.896,200.889,69.062 M292.307,53.646
		c1.382-8.017,5.918-9.558,13.611-4.625c1.973,4.521,3.057,10.38,3.254,17.574c0.198,4.111,0.393,10.072,0.591,17.882V122.4
		c0.396,3.289,1.775,16.033,4.143,38.231c2.168,22.404,3.254,37.203,3.254,44.397c0,2.261-0.493,4.419-1.479,6.475
		c-1.577,3.288-4.241,4.933-7.988,4.933c-5.918,0-9.565-3.7-10.947-11.099c-0.393-1.644-0.591-6.68-0.591-15.107
		c-1.184-11.716-1.973-20.349-2.368-25.898c-0.393-3.906-0.986-11.921-1.775-24.048c-0.789-12.744-1.182-21.993-1.182-27.748
		l0.293-39.464C291.123,64.438,291.519,57.962,292.307,53.646 M319.231,251.274c0,2.261-0.591,4.419-1.775,6.475
		c-1.775,2.672-4.341,4.008-7.693,4.008c-5.72,0-9.368-1.747-10.947-5.241l-0.886-5.241c0-7.194,3.55-10.688,10.649-10.482
		C315.681,240.997,319.231,244.491,319.231,251.274 M200.591,252.508c0.842-4.947,4.097-6.9,9.763-5.858
		c2.329,0.367,4.202,1.087,5.623,2.158c3.748,1.089,5.62,3.864,5.62,8.325c0,1.707-0.591,3.454-1.775,5.242
		c0.056,0.444,0.056,0.752,0,0.925c-0.789,1.645-3.057,3.7-6.804,6.166h-5.325c-0.808-0.37-1.597-0.781-2.368-1.233
		c-4.338-1.06-6.509-4.143-6.509-9.249C198.816,256.363,199.409,254.205,200.591,252.508 M271.301,251.891v0.308
		c0,0.206,0,0.412,0,0.617c0,10.483-4.734,15.724-14.202,15.724c-3.55,0-6.311-2.364-8.284-7.091
		c-1.379-4.727-2.07-7.194-2.07-7.399c0-9.25,4.143-13.668,12.427-13.257c6.311,0.411,10.156,2.98,11.538,7.708
		C271.104,249.527,271.301,250.658,271.301,251.891z"/>
</g>
</svg>
