<svg xmlns="http://www.w3.org/2000/svg" xmlns:xlink="http://www.w3.org/1999/xlink" version="1.1" preserveAspectRatio="none" x="0px" y="0px" viewBox="0 0 100 125"><defs><g id="a"><path fill="#000000" stroke="none" d=" M 92.15 40.7 Q 92.15 33 84.45 25.85 76.8 18.65 59.5 14.6 L 53.05 14.15 Q 32.95 15.15 19.15 27.25 7.65 37.45 7.65 46.8 7.65 50.95 9.7 54.95 12.35 60.05 18.45 62.85 L 18.65 67.65 Q 18.65 70.85 18.3 74.55 17.95 78.25 17.9 78.65 17.75 79 18.15 80.25 18.5 81.5 19.75 81.45 21 81.3 23.65 77.35 26.4 72.7 27.35 70.9 28.35 69.1 30.4 67 32.45 64.9 34.05 63.7 35.65 64.35 37.65 64.8 39.55 65.2 41.8 65.65 44.05 66.05 48.75 65.95 53.4 65.8 63.5 62.75 73.55 59.65 79.5 56.25 86.7 52.15 89.65 48.3 92.15 45 92.15 40.7 M 47.95 23.7 Q 48.3 20.7 49.85 21.35 51.4 22.05 51 24.6 L 51 28.5 Q 51.2 31.35 51.65 37.55 52 43.15 52 46.8 52 48.75 50.4 48.75 48.65 48.75 48.45 46.75 48.65 44.55 48.6 44 48.3 40.6 48.25 39.15 47.75 34.15 47.75 29.4 47.75 25.5 47.95 23.7 M 41.6 25.35 Q 41.75 29.4 42.2 32.35 42.45 34.1 43.3 39.25 44.05 44.05 44.05 46.5 44.05 46.75 44.3 47.45 44.2 48.85 42.9 48.85 41.25 48.85 40.65 44.35 40.25 38.95 39.85 37 39.6 35.95 39.1 31.6 38.55 27 38.55 25.25 38.55 22 40 22 41.4 22 41.55 23.15 41.65 23.85 41.6 25.35 M 57.05 22.85 Q 57.4 20.9 59.35 22.1 59.85 23.2 59.9 24.95 59.95 25.95 60 27.85 L 60 34 Q 60.1 34.8 60.7 40.2 61.25 45.65 61.25 47.4 61.25 47.95 61 48.45 60.6 49.25 59.65 49.25 58.15 49.25 57.8 47.45 57.7 47.05 57.7 45 57.4 42.15 57.3 40.8 57.2 39.85 57 36.9 56.8 33.8 56.8 32.4 L 56.85 26 Q 56.85 23.9 57.05 22.85 M 61.6 54.9 Q 61.6 55.45 61.3 55.95 60.85 56.6 60 56.6 58.55 56.6 58.15 55.75 L 58 54.9 Q 58 53.15 59.8 53.2 61.6 53.25 61.6 54.9 M 41.55 55.1 Q 41.7634765625 53.896484375 43.2 54.15 43.78984375 54.239453125 44.15 54.5 45.1 54.76484375 45.1 55.85 45.1 56.265234375 44.8 56.7 44.8140625 56.8080078125 44.8 56.85 44.6 57.25 43.65 57.85 L 42.75 57.85 Q 42.5451171875 57.7599609375 42.35 57.65 41.25 57.3921875 41.25 56.15 41.25 55.512890625 41.55 55.1 M 53.5 55 L 53.5 55.05 Q 53.5 55.1 53.5 55.15 53.5 57.7 51.1 57.7 50.2 57.7 49.7 56.55 49.35 55.4 49.35 55.35 49.35 53.1 51.45 53.2 53.05 53.3 53.4 54.45 53.5 54.7 53.5 55 Z"/></g></defs><g transform="matrix( 1, 0, 0, 1, 0,0) "><use xlink:href="#a"/></g><text x="0" y="115" fill="#000000" font-size="5px" font-weight="bold" font-family="'Helvetica Neue', Helvetica, Arial-Unicode, Arial, Sans-serif">Created by Tatiana</text><text x="0" y="120" fill="#000000" font-size="5px" font-weight="bold" font-family="'Helvetica Neue', Helvetica, Arial-Unicode, Arial, Sans-serif">from the Noun Project</text></svg>