<svg xmlns="http://www.w3.org/2000/svg" xmlns:xlink="http://www.w3.org/1999/xlink" version="1.1" x="0px" y="0px" viewBox="0 0 100 125" enable-background="new 0 0 100 100" xml:space="preserve"><path d="M53.325,95c-1.954,0-3.872-0.482-5.555-1.398l-0.003,0.008l-9.755-5.305c-3.965-2.157-6.327-6.419-6.317-11.398  c0.004-2.386,0.554-4.747,1.585-6.916l-4.813,0.676c-0.585,0.082-1.173,0.124-1.75,0.124c-1.887,0-3.736-0.449-5.376-1.303  c-0.062-0.024-0.125-0.056-0.185-0.09L11.4,64.093c-3.964-2.157-6.326-6.415-6.316-11.391c0.014-7.736,5.905-14.854,13.13-15.87  l22.312-3.137l-2.411-1.311c-3.963-2.154-6.326-6.413-6.317-11.39c0.016-7.736,5.905-14.854,13.13-15.87  C45.516,5.042,46.108,5,46.689,5c1.98,0,3.844,0.468,5.542,1.391c0,0,9.812,5.338,9.839,5.354c3.878,2.148,6.245,6.411,6.235,11.352  c-0.004,2.387-0.552,4.747-1.584,6.917l4.813-0.676c0.589-0.083,1.182-0.125,1.766-0.125c1.982,0,3.846,0.469,5.545,1.392  l9.756,5.31c3.927,2.132,6.326,6.42,6.317,11.395c-0.016,7.733-5.907,14.847-13.132,15.863l-22.307,3.138l2.406,1.31l-0.002,0.002  c3.926,2.133,6.328,6.421,6.316,11.391c-0.016,7.735-5.901,14.853-13.123,15.868C54.492,94.958,53.902,95,53.325,95z M60.354,69.034  c-0.023-0.013-0.048-0.024-0.074-0.036c-0.284-0.128-0.578-0.234-0.876-0.333c-0.088-0.029-0.176-0.057-0.264-0.08  c-0.24-0.072-0.485-0.137-0.734-0.187c-0.076-0.018-0.15-0.036-0.227-0.052c-0.316-0.06-0.638-0.103-0.964-0.131  c-0.072-0.007-0.147-0.009-0.223-0.015c-0.265-0.019-0.535-0.022-0.808-0.021c-0.097,0-0.192,0.002-0.291,0.006  c-0.345,0.017-0.69,0.04-1.04,0.093c-6.316,0.887-11.439,7.128-11.453,13.937c0,0.5,0.034,0.982,0.086,1.459  c0.018,0.142,0.04,0.283,0.061,0.427c0.049,0.336,0.109,0.667,0.183,0.988c0.033,0.146,0.068,0.29,0.105,0.433  c0.094,0.345,0.203,0.679,0.324,1.006c0.035,0.093,0.061,0.188,0.099,0.278c0.165,0.409,0.354,0.804,0.561,1.181  c0.048,0.089,0.105,0.171,0.156,0.256c0.168,0.286,0.347,0.563,0.539,0.829c0.081,0.11,0.165,0.219,0.25,0.325  c0.188,0.236,0.386,0.465,0.594,0.682c0.084,0.09,0.167,0.183,0.255,0.268c0.298,0.288,0.605,0.562,0.934,0.81  c0.021,0.014,0.04,0.024,0.061,0.04c0.312,0.229,0.639,0.436,0.976,0.627c1.79,1.008,3.922,1.444,6.223,1.121  c6.308-0.885,11.434-7.129,11.443-13.94C66.259,74.351,63.876,70.64,60.354,69.034z M87.042,37.316  c-0.016-0.007-0.028-0.016-0.044-0.022c-0.289-0.127-0.586-0.238-0.887-0.336c-0.084-0.027-0.17-0.053-0.256-0.078  c-0.243-0.073-0.491-0.137-0.744-0.189c-0.074-0.016-0.146-0.036-0.222-0.049c-0.317-0.06-0.64-0.104-0.968-0.132  c-0.071-0.006-0.146-0.008-0.222-0.013c-0.266-0.018-0.537-0.023-0.812-0.02c-0.097,0.001-0.191,0.002-0.289,0.007  c-0.345,0.015-0.691,0.041-1.043,0.09L28.24,44.068c-6.314,0.888-11.437,7.128-11.452,13.941c0,0.5,0.033,0.983,0.086,1.457  c0.017,0.144,0.041,0.287,0.061,0.428c0.048,0.336,0.107,0.663,0.182,0.985c0.034,0.144,0.068,0.293,0.107,0.433  c0.093,0.346,0.202,0.676,0.323,1.002c0.035,0.093,0.062,0.19,0.1,0.281c0.165,0.41,0.352,0.802,0.559,1.177  c0.05,0.092,0.108,0.176,0.161,0.265c0.167,0.282,0.345,0.556,0.534,0.819c0.082,0.112,0.167,0.221,0.252,0.329  c0.186,0.236,0.385,0.461,0.589,0.676c0.086,0.092,0.17,0.185,0.259,0.271c0.298,0.29,0.604,0.562,0.933,0.81  c0.02,0.015,0.038,0.021,0.058,0.036c0.311,0.229,0.64,0.438,0.981,0.629c1.789,1.008,3.922,1.445,6.222,1.122l9.041-1.271  l12.806-1.801l3.314-0.468l28.157-3.96c6.313-0.885,11.438-7.127,11.451-13.934C92.974,42.635,90.58,38.914,87.042,37.316z   M43.65,28.19c0.05,0.334,0.109,0.662,0.184,0.983c0.034,0.146,0.068,0.293,0.107,0.437c0.092,0.341,0.201,0.672,0.319,0.996  c0.036,0.096,0.065,0.195,0.103,0.29c0.165,0.406,0.351,0.799,0.558,1.174c0.052,0.094,0.11,0.179,0.165,0.271  c0.165,0.28,0.34,0.551,0.528,0.81c0.083,0.115,0.169,0.226,0.257,0.335c0.186,0.233,0.38,0.456,0.583,0.671  c0.089,0.092,0.175,0.188,0.264,0.277c0.114,0.111,0.241,0.206,0.36,0.311c0.189,0.167,0.37,0.344,0.571,0.495  c0.02,0.016,0.042,0.027,0.061,0.041c0.311,0.229,0.639,0.436,0.975,0.626c1.789,1.008,3.923,1.446,6.224,1.123  c3.04-0.427,5.801-2.107,7.854-4.49c2.203-2.556,3.586-5.92,3.594-9.445c0.008-4.667-2.384-8.388-5.917-9.986  c-0.017-0.008-0.032-0.018-0.049-0.025c-0.288-0.127-0.587-0.237-0.888-0.337c-0.083-0.027-0.168-0.052-0.251-0.077  c-0.246-0.073-0.495-0.137-0.749-0.19c-0.072-0.016-0.144-0.034-0.218-0.048c-0.318-0.061-0.641-0.104-0.97-0.132  c-0.069-0.006-0.142-0.008-0.214-0.012c-0.27-0.018-0.545-0.024-0.818-0.021c-0.096,0.001-0.188,0.003-0.286,0.007  c-0.345,0.014-0.691,0.041-1.042,0.089c-6.315,0.888-11.438,7.127-11.452,13.942c-0.001,0.499,0.033,0.982,0.086,1.458  C43.605,27.907,43.63,28.048,43.65,28.19z"/><text x="0" y="115" fill="#000000" font-size="5px" font-weight="bold" font-family="'Helvetica Neue', Helvetica, Arial-Unicode, Arial, Sans-serif">Created by Ryan Spiering</text><text x="0" y="120" fill="#000000" font-size="5px" font-weight="bold" font-family="'Helvetica Neue', Helvetica, Arial-Unicode, Arial, Sans-serif">from the Noun Project</text></svg>