<svg xmlns="http://www.w3.org/2000/svg" xmlns:xlink="http://www.w3.org/1999/xlink" version="1.1" x="0px" y="0px" viewBox="0 0 50.64 65.7" enable-background="new 0 0 50.64 52.56" xml:space="preserve"><path fill-rule="evenodd" clip-rule="evenodd" d="M30.753,0.766c-0.506,5.276-4.65,10.127-6.016,15.793  c1.384,1.248,3.402,1.862,5.263,2.632c4.281-4.494,3.769-13.78,9.777-16.545c-1.457,6.187-4.638,10.653-6.393,16.545  c4.65,2.127,18.246,3.689,10.529,10.154c-4.562-1.205-8.229-3.305-12.41-4.89c-1.28,1.478-1.839,3.675-2.632,5.642  c3.537,2.354,8.178,3.605,12.033,5.641c-0.049,0.672,0.461,0.791,0.377,1.504c-0.488,1.266-2.329,1.18-3.009,2.254  c-3.82-1.318-7.642-2.635-11.28-4.137c-3.043,5.107-4.85,11.447-7.897,16.547c-1.905-2.197,0.348-5.912,1.505-8.648  c1.219-2.885,2.749-5.885,3.76-8.273c-1.602-1.281-4.293-1.473-6.016-2.631c-2.138,4.506-5.098,8.189-5.641,14.289  c-1.297,0.455-1.257,2.252-3.384,1.879c1.044-6.6,4.475-10.816,6.393-16.545c-2.653-3.184-13.62-2.979-9.776-9.024  c4.563,0.45,7.589,2.437,11.28,3.76c1.325-1.559,1.727-4.039,2.632-6.017c-3.1-2.665-8.906-2.626-11.657-5.64  c1.948-5.892,9.6-0.307,13.537,0.752C25.434,11.74,25.534,2.065,30.753,0.766z M22.105,21.447c-0.452,2.18-1.508,3.757-1.88,6.018  c2.13,0.627,3.791,1.725,6.017,2.254c0.862-2.018,1.884-3.88,2.255-6.391C26.515,22.552,24.856,21.454,22.105,21.447z"/><text x="0" y="67.56" fill="#000000" font-size="5px" font-weight="bold" font-family="'Helvetica Neue', Helvetica, Arial-Unicode, Arial, Sans-serif">Created by James Cottell</text><text x="0" y="72.56" fill="#000000" font-size="5px" font-weight="bold" font-family="'Helvetica Neue', Helvetica, Arial-Unicode, Arial, Sans-serif">from the Noun Project</text></svg>