<?xml version="1.0" encoding="utf-8"?>
<!-- Generator: Adobe Illustrator 16.0.4, SVG Export Plug-In . SVG Version: 6.00 Build 0)  -->
<!DOCTYPE svg PUBLIC "-//W3C//DTD SVG 1.1//EN" "http://www.w3.org/Graphics/SVG/1.1/DTD/svg11.dtd">
<svg version="1.1" id="Layer_1" xmlns="http://www.w3.org/2000/svg" xmlns:xlink="http://www.w3.org/1999/xlink" x="0px" y="0px"
	 width="30px" height="30px" viewBox="0 0 30 30" enable-background="new 0 0 30 30" xml:space="preserve">
<path fill="#231F20" d="M28.865,23.973L19.894,15l8.976-8.975c1.349-1.349,1.349-3.544-0.001-4.894
	c-1.349-1.349-3.543-1.349-4.893,0L15,10.107L6.024,1.132c-1.349-1.349-3.543-1.349-4.893,0s-1.349,3.543,0,4.892L10.107,15
	l-8.973,8.973c-1.35,1.351-1.351,3.546-0.002,4.895c1.349,1.35,3.545,1.35,4.896-0.001L15,19.894l8.973,8.972
	c1.351,1.352,3.546,1.353,4.895,0.003C30.218,27.52,30.217,25.324,28.865,23.973z"/>
</svg>
