<?xml version="1.0" encoding="utf-8"?>
<!-- Generator: Adobe Illustrator 16.0.4, SVG Export Plug-In . SVG Version: 6.00 Build 0)  -->
<!DOCTYPE svg PUBLIC "-//W3C//DTD SVG 1.1//EN" "http://www.w3.org/Graphics/SVG/1.1/DTD/svg11.dtd">
<svg version="1.1" id="Layer_1" xmlns="http://www.w3.org/2000/svg" xmlns:xlink="http://www.w3.org/1999/xlink" x="0px" y="0px"
	 width="30px" height="30px" viewBox="0 0 30 30" enable-background="new 0 0 30 30" xml:space="preserve">
<g>
	<path fill="#231F20" d="M2.65,0C1.941,0,1.275,0.275,0.775,0.775C0.275,1.275,0,1.941,0,2.65s0.275,1.375,0.775,1.875
		l10.438,10.439L0.777,25.4c-1.035,1.036-1.036,2.719-0.002,3.752c1.001,1.002,2.753,1.003,3.753-0.001l10.436-10.437L25.4,29.149
		c0.501,0.501,1.169,0.778,1.879,0.778l0,0c0.709,0,1.374-0.274,1.873-0.775c0.501-0.5,0.775-1.165,0.775-1.875
		c-0.001-0.709-0.277-1.376-0.778-1.877L18.715,14.964L29.153,4.526c1.034-1.035,1.034-2.717-0.001-3.751
		c-1-0.999-2.75-0.999-3.75,0L14.964,11.213L4.525,0.775C4.025,0.275,3.359,0,2.65,0z"/>
</g>
</svg>
